<!--?xml version="1.0" encoding="utf-8"?-->
<!-- Generator: Adobe Illustrator 18.1.1, SVG Export Plug-In . SVG Version: 6.00 Build 0)  -->

<svg version="1.1" id="_x31_0" xmlns="http://www.w3.org/2000/svg" xmlns:xlink="http://www.w3.org/1999/xlink" x="0px" y="0px" viewBox="0 0 512 512" style="width: 48px; height: 48px; opacity: 1;" xml:space="preserve">
<style type="text/css">
	.st0{fill:#374149;}
</style>
<g>
	<path class="st0" d="M381.4,0H130.521C91.189,0,59.228,31.961,59.228,71.289v369.34c0,39.332,31.961,71.371,71.293,71.371H381.4
		c39.332,0,71.371-32.039,71.371-71.371V71.289C452.772,31.961,420.732,0,381.4,0z M98.712,71.289
		c0-17.531,14.278-31.805,31.809-31.805H381.4c17.61,0,31.805,14.274,31.805,31.805v369.34c0,17.531-14.195,31.809-31.805,31.809
		H130.521c-17.531,0-31.809-14.278-31.809-31.809V71.289z" style="fill: rgb(75, 75, 75);"></path>
	<polygon class="st0" points="115.404,204.766 115.404,204.926 396.56,204.926 396.56,190.477 116.42,190.477 115.56,190.477 
		115.56,190.477 115.404,190.477 115.404,204.722 115.404,204.766 	" style="fill: rgb(75, 75, 75);"></polygon>
	<path class="st0" d="M136.006,163.828v0.156h239.949V94.566c0-9.863-7.996-17.859-17.859-17.859H153.869
		c-9.863,0-17.863,7.996-17.863,17.859v69.05V163.828L136.006,163.828z" style="fill: rgb(75, 75, 75);"></path>
	<circle class="st0" cx="172.588" cy="258.258" r="26.18" style="fill: rgb(75, 75, 75);"></circle>
	<circle class="st0" cx="255.982" cy="258.258" r="26.18" style="fill: rgb(75, 75, 75);"></circle>
	<path class="st0" d="M339.377,232.078c-14.462,0-26.184,11.718-26.184,26.179c0,14.461,11.722,26.18,26.184,26.18
		c14.457,0,26.179-11.719,26.179-26.18C365.556,243.797,353.834,232.078,339.377,232.078z" style="fill: rgb(75, 75, 75);"></path>
	<path class="st0" d="M172.588,307.711c-14.461,0-26.183,11.722-26.183,26.183c0,14.457,11.722,26.18,26.183,26.18
		s26.184-11.723,26.184-26.18C198.772,319.434,187.048,307.711,172.588,307.711z" style="fill: rgb(75, 75, 75);"></path>
	<path class="st0" d="M255.982,307.711c-14.461,0-26.183,11.722-26.183,26.183c0,14.457,11.722,26.18,26.183,26.18
		c14.462,0,26.18-11.723,26.18-26.18C282.162,319.434,270.444,307.711,255.982,307.711z" style="fill: rgb(75, 75, 75);"></path>
	<path class="st0" d="M339.377,307.711c-14.462,0-26.184,11.722-26.184,26.183c0,14.457,11.722,26.18,26.184,26.18
		c14.457,0,26.179-11.723,26.179-26.18C365.556,319.434,353.834,307.711,339.377,307.711z" style="fill: rgb(75, 75, 75);"></path>
	<path class="st0" d="M172.588,383.348c-14.461,0-26.183,11.722-26.183,26.183c0,14.457,11.722,26.18,26.183,26.18
		s26.184-11.723,26.184-26.18C198.772,395.07,187.048,383.348,172.588,383.348z" style="fill: rgb(75, 75, 75);"></path>
	<path class="st0" d="M255.982,383.348c-14.461,0-26.183,11.722-26.183,26.183c0,14.457,11.722,26.18,26.183,26.18
		c14.462,0,26.18-11.723,26.18-26.18C282.162,395.07,270.444,383.348,255.982,383.348z" style="fill: rgb(75, 75, 75);"></path>
	<path class="st0" d="M339.377,383.348c-14.462,0-26.184,11.722-26.184,26.183c0,14.457,11.722,26.18,26.184,26.18
		c14.457,0,26.179-11.723,26.179-26.18C365.556,395.07,353.834,383.348,339.377,383.348z" style="fill: rgb(75, 75, 75);"></path>
</g>
</svg>
