<!--?xml version="1.0" encoding="utf-8"?-->
<!-- Generator: Adobe Illustrator 18.1.1, SVG Export Plug-In . SVG Version: 6.00 Build 0)  -->

<svg version="1.1" id="_x31_0" xmlns="http://www.w3.org/2000/svg" xmlns:xlink="http://www.w3.org/1999/xlink" x="0px" y="0px" viewBox="0 0 512 512" style="width: 48px; height: 48px; opacity: 1;" xml:space="preserve">
<style type="text/css">
	.st0{fill:#374149;}
</style>
<g>
	<path class="st0" d="M353.703,207.305l0.179-0.164l0,0l0.122-0.11c-1.864-2.015-3.86-3.867-5.817-5.778
		c-1.25-1.25-2.5-2.503-3.797-3.777l-0.004,0.004c-0.039-0.035-0.074-0.078-0.114-0.114l-17.382,19.328
		c2.726,2.465,5.386,5.058,7.914,7.848L353.703,207.305z" style="fill: rgb(75, 75, 75);"></path>
	<path class="st0" d="M147.484,395.086l-0.133,0.126l0,0l-0.121,0.106c3.113,3.374,6.355,6.617,9.73,9.664l17.382-19.262
		c-2.726-2.465-5.382-5.125-7.914-7.914L147.484,395.086z" style="fill: rgb(75, 75, 75);"></path>
	<path class="st0" d="M166.172,224.996c2.527-2.789,5.187-5.446,7.91-7.91l-17.511-19.199c-1.563,1.442-3.043,3.066-4.57,4.602
		c-1.61,1.59-3.266,3.262-4.985,5.008l0.004,0.004c-0.035,0.043-0.074,0.074-0.113,0.117L166.172,224.996z" style="fill: rgb(75, 75, 75);"></path>
	<path class="st0" d="M111.703,294.687l-0.504-0.027v0.004l-0.16-0.008c-0.063,2.141-0.13,4.348-0.13,6.485
		c0,2.336,0.066,4.61,0.13,6.293l0.066,1.297l25.878-1.879c-0.066-1.882-0.133-3.828-0.133-5.71c0-1.75,0.066-3.5,0.133-5.25
		L111.703,294.687z" style="fill: rgb(75, 75, 75);"></path>
	<path class="st0" d="M257.039,427.942v-12.321l0.007-0.488h-0.007v-0.164l-1.688,0.066c-3.438,0.129-6.809,0.129-10.117-0.066
		l-1.203,25.274l-0.024,0.511l0,0L244,440.914c2.14,0.066,4.347,0.129,6.617,0.129c2.27,0,4.606-0.062,6.875-0.129l1.707-0.227
		l0.082-0.004v-0.007l0.157-0.02L257.039,427.942z" style="fill: rgb(75, 75, 75);"></path>
	<path class="st0" d="M256,187.508l1.168-25.879c-4.344-0.191-8.821-0.191-13.297,0l-0.387,0.066l1.622,25.879
		C248.801,187.379,252.367,187.379,256,187.508z" style="fill: rgb(75, 75, 75);"></path>
	<path class="st0" d="M390.328,294.344c0-0.016,0-0.031,0-0.047l0,0c0-0.054,0-0.102-0.004-0.16l-25.054,0.879l-0.73,0.019
		l0.003,0.004l-0.16,0.008l0.062,1.035c0.066,1.816,0.129,3.503,0.129,5.254c0,1.882-0.062,3.699-0.129,5.578l25.879,1.168
		c0.129-2.203,0.195-4.473,0.195-6.746C390.519,299.133,390.453,296.848,390.328,294.344z" style="fill: rgb(75, 75, 75);"></path>
	<path class="st0" d="M335.438,378.016l-0.254-0.234l0,0l-0.121-0.106c-2.461,2.789-5.122,5.449-7.91,7.914l17.446,19.199
		c3.148-2.847,6.16-5.89,9.078-9.019c0.18-0.184,0.364-0.348,0.543-0.527l-0.004-0.008c0.035-0.039,0.074-0.07,0.114-0.11
		L335.438,378.016z" style="fill: rgb(75, 75, 75);"></path>
	<path class="st0" d="M362.965,244.938l-90.934,39.93c-4.938-6.438-12.625-10.652-21.367-10.652
		c-14.926,0-27.024,12.098-27.024,27.023c0,1.602,0.203,3.148,0.469,4.672l-19.374,8.507c-2.493,1.094-4.227,2.899-3.746,3.899
		l5.512,11.496c0.476,1,2.969,0.762,5.371-0.516l18.832-9.984c4.945,5.461,12.015,8.953,19.961,8.953
		c14.926,0,27.027-12.102,27.027-27.027c0-2.211-0.34-4.332-0.844-6.39l87.742-46.524
		C369.571,245.683,368.125,242.672,362.965,244.938z" style="fill: rgb(75, 75, 75);"></path>
	<path class="st0" d="M214.23,41.054h12.648h47.543h12.649c4.086,0,7.39-3.304,7.39-7.328V7.328c0-4.019-3.305-7.328-7.39-7.328
		h-72.84c-4.02,0-7.328,3.309-7.328,7.328v26.398C206.902,37.75,210.211,41.054,214.23,41.054z" style="fill: rgb(75, 75, 75);"></path>
	<path class="st0" d="M53.316,155.531c1.879,0,3.762-0.711,5.188-2.141l8.949-8.882l33.664-33.664l8.887-8.95
		c2.851-2.855,2.851-7.523,0-10.378l-18.618-18.68c-1.492-1.426-3.371-2.141-5.254-2.141c-1.879,0-3.762,0.715-5.188,2.141
		l-51.5,51.562c-2.851,2.855-2.851,7.527,0,10.379l18.618,18.613C49.488,154.82,51.371,155.531,53.316,155.531z" style="fill: rgb(75, 75, 75);"></path>
	<path class="st0" d="M435.403,153.652l-33.661-33.664L383.84,137.89c-30.485-24.969-68.168-41.507-109.418-46.117V54.418v-0.23l0,0
		v-0.16h-47.543v37.746c-38.527,4.347-74.004,19.07-103.386,41.449l-13.23-13.234l-33.477,33.477l-0.074,0.074l0,0l-0.109,0.113
		l12.453,12.454c-30.68,36.645-49.164,83.734-49.164,135.102C39.891,417.5,134.453,512,250.683,512
		c116.226,0,210.793-94.5,210.793-210.793c0-48.645-16.605-93.461-44.43-129.199L435.403,153.652z M250.683,453.625
		c-84.058,0-152.422-68.359-152.422-152.418c0-83.992,68.363-152.418,152.422-152.418c84.055,0,152.418,68.426,152.418,152.418
		C403.102,385.266,334.739,453.625,250.683,453.625z" style="fill: rgb(75, 75, 75);"></path>
	<path class="st0" d="M482.555,124.398l-51.5-51.562c-1.426-1.426-3.305-2.141-5.25-2.141c-1.883,0-3.766,0.715-5.192,2.141
		L402,91.516c-2.856,2.855-2.856,7.523,0,10.378l8.949,8.95l0,0l33.664,33.664l0,0l8.887,8.882c1.426,1.43,3.305,2.141,5.187,2.141
		c1.879,0,3.762-0.711,5.187-2.141l18.68-18.613C485.406,131.926,485.406,127.254,482.555,124.398z" style="fill: rgb(75, 75, 75);"></path>
</g>
</svg>
